Patient4_TMGait_0pt6_01_right_34_GRF.mot
version=1
nRows=52
nColumns=19
inDegrees=no
endheader
time	F1x	F1y	F1z	M1x	M1y	M1z	F2x	F2y	F2z	M2x	M2y	M2z	EC1x	EC1y	EC1z	EC2x	EC2y	EC2z
40.81	-14.6379	698.3471	71.8095	-260.4639	-65.1911	644.4836	-8.1161	14.1832	-1.3775	4.4431	1.7527	22.0463	-0.0592	0.0182	-0.0073	-0.0462	0.0165	0.9585
40.8219	-4.3778	695.0165	67.5372	-258.4407	-58.5542	644.8456	-5.5753	10.4522	-0.95665	3.3812	1.2544	15.8485	-0.0592	0.0182	-0.0073	-0.0462	0.0165	0.9585
40.8337	4.6273	692.2323	63.9168	-256.7357	-52.7239	644.2365	-3.4462	7.3581	-0.59914	2.5013	0.84963	10.6951	-0.0592	0.0182	-0.0073	-0.0462	0.0165	0.9585
40.8456	11.8894	690.8288	61.1018	-255.6991	-47.9659	643.2546	-1.8201	5.0541	-0.32988	1.8492	0.55381	6.8367	-0.0592	0.0182	-0.0073	-0.0462	0.0165	0.9585
40.8574	17.4146	691.4184	59.1002	-255.5566	-44.31	642.6015	-0.72309	3.5335	-0.14444	1.4225	0.36546	4.2688	-0.0592	0.0182	-0.0073	-0.0462	0.0165	0.9585
40.8693	21.3867	694.2267	57.7664	-256.3678	-41.6086	642.781	-0.058044	2.6553	-0.026303	1.1807	0.25758	2.7497	-0.0592	0.0182	-0.0073	-0.0462	0.0165	0.9585
40.8811	24.113	699.0974	56.9862	-258.0361	-39.7103	643.9771	0.24785	2.253	0.041261	1.0726	0.21406	2.0162	-0.0592	0.0182	-0.0073	-0.0462	0.0165	0.9585
40.893	25.9287	705.6399	56.5895	-260.3745	-38.3946	646.1758	0.30481	2.1095	0.071732	1.0318	0.21415	1.7419	-0.0592	0.0182	-0.0073	-0.0462	0.0165	0.9585
40.9049	27.1135	713.3449	56.4765	-263.1531	-37.5111	649.1812	0.17697	2.048	0.075801	0.99899	0.24925	1.6688	-0.0592	0.0182	-0.0073	-0.0462	0.0165	0.9585
40.9167	27.8851	721.7504	56.5075	-266.1634	-36.8861	652.7846	-0.057998	1.8735	0.063797	0.90726	0.30804	1.5147	-0.0592	0.0182	-0.0073	-0.0462	0.0165	0.9585
40.9286	28.4153	730.4268	56.6051	-269.2221	-36.4099	656.7517	-0.36864	1.4214	0.048501	0.69441	0.38496	1.0709	-0.0592	0.0182	-0.0073	-0.0462	0.0165	0.9585
40.9404	28.8077	738.9833	56.6837	-272.1714	-35.9823	660.8268	-0.69225	0.52626	0.03519	0.29766	0.46746	0.12411	-0.0592	0.0182	-0.0073	-0.0462	0.0165	0.9585
40.9523	29.1483	747.0076	56.7136	-274.8526	-35.5578	664.7008	-0.98646	-0.93523	0.03014	-0.33267	0.53715	-1.4659	-0.0592	0.0182	-0.0073	-0.0462	0.0165	0.9585
40.9641	29.5241	754.068	56.657	-277.1052	-35.0839	668.0183	-1.1616	-3.014	0.034094	-1.2178	0.56098	-3.7604	-0.0592	0.0182	-0.0073	-0.0462	0.0165	0.9585
40.976	29.9895	759.6707	56.4934	-278.7528	-34.5243	670.333	-1.1127	-5.6271	0.041163	-2.3255	0.50459	-6.6603	-0.0592	0.0182	-0.0073	-0.0462	0.0165	0.9585
40.9879	30.6423	763.3032	56.1997	-279.6154	-33.8343	671.1627	-0.69942	-8.5124	0.043962	-3.5449	0.31801	-9.8722	-0.0592	0.0182	-0.0073	-0.0462	0.0165	0.9585
40.9997	31.5663	764.5438	55.7623	-279.5468	-32.9727	670.0824	0.24637	-11.1017	0.01889	-4.6391	-0.049377	-12.7577	-0.0592	0.0182	-0.0073	-0.0462	0.0165	0.9585
41.0116	32.8705	763.1904	55.1896	-278.4825	-31.9092	666.825	1.9077	-12.4356	-0.044855	-5.2064	-0.66671	-14.2496	-0.0592	0.0182	-0.0073	-0.0462	0.0165	0.9585
41.0234	34.6532	759.3207	54.5062	-276.4559	-30.6229	661.3901	4.4542	-11.058	-0.16357	-4.6403	-1.5829	-12.7288	-0.0592	0.0182	-0.0073	-0.0462	0.0165	0.9585
41.0353	37.0483	753.1832	53.7532	-273.5638	-29.0986	653.9136	7.978	-4.9758	-0.34561	-2.111	-2.8096	-5.9769	-0.0592	0.0182	-0.0073	-0.0462	0.0165	0.9585
41.0471	40.1147	745.0286	52.9691	-269.9079	-27.3343	644.5692	12.4017	8.2561	-0.59821	3.4049	-4.2881	8.7248	-0.0592	0.0182	-0.0073	-0.0462	0.0165	0.9585
41.059	43.9112	734.8483	52.1437	-265.5049	-25.3025	633.3225	17.3269	31.3198	-0.92002	13.0319	-5.8367	34.3735	-0.0592	0.0182	-0.0073	-0.0462	0.0165	0.9585
41.0709	48.3197	722.1786	51.2212	-260.2127	-22.9894	619.8203	21.9023	66.6017	-1.2856	27.7787	-7.1099	73.6469	-0.0592	0.0182	-0.0073	-0.0462	0.0165	0.9585
41.0827	53.1252	706.0125	50.0697	-253.7064	-20.3613	603.2818	24.6589	115.3927	-1.6475	48.2002	-7.551	128.0247	-0.0592	0.0182	-0.0073	-0.0462	0.0165	0.9585
41.0946	57.9128	684.8768	48.4935	-245.5	-17.401	582.6132	23.6325	176.7649	-1.8546	73.9287	-6.5234	196.5084	-0.0592	0.0182	-0.0073	-0.0462	0.0165	0.9585
41.1064	62.1769	657.0737	46.2441	-235.0265	-14.0884	556.5258	17.0669	246.6394	-1.8163	103.275	-3.453	274.598	-0.0592	0.0182	-0.0073	-0.0462	0.0165	0.9585
41.1183	65.308	621.166	43.1392	-221.794	-10.4924	523.9632	5.7323	318.4002	-2.0361	133.4102	1.9042	354.9568	-0.0592	0.0182	-0.0073	-0.0462	0.0165	0.9585
41.1301	66.777	576.4114	39.1071	-205.5445	-6.7543	484.4009	-7.5903	384.1624	-3.8251	160.9522	9.7195	428.677	-0.0592	0.0182	-0.0073	-0.0462	0.0165	0.9585
41.142	66.1008	523.1538	34.3096	-186.3804	-3.1811	438.2106	-20.3736	438.6798	-7.4368	183.6694	19.1514	489.6206	-0.0592	0.0182	-0.0073	-0.0462	0.0165	0.9585
41.1539	63.0158	462.9189	29.0012	-164.8118	-0.06846	386.6916	-31.2787	481.7187	-12.4454	201.4562	29.1531	537.3506	-0.0592	0.0182	-0.0073	-0.0462	0.0165	0.9585
41.1657	57.4529	398.255	23.5523	-141.7063	2.2643	331.9891	-39.7916	516.3304	-18.0154	215.6396	38.6149	575.1913	-0.0592	0.0182	-0.0073	-0.0462	0.0165	0.9585
41.1776	49.6542	332.4357	18.243	-118.2051	3.6838	276.7729	-46.2771	546.4403	-23.3235	227.9249	46.8122	607.5434	-0.0592	0.0182	-0.0073	-0.0462	0.0165	0.9585
41.1894	40.1851	269.017	13.3466	-95.5597	4.1697	223.9213	-51.2169	575.4348	-27.8975	239.7898	53.4638	638.1388	-0.0592	0.0182	-0.0073	-0.0462	0.0165	0.9585
41.2013	29.9647	211.1595	9.0289	-74.8973	3.9175	175.9294	-54.9537	605.7868	-31.4669	252.2833	58.4786	669.6504	-0.0592	0.0182	-0.0073	-0.0462	0.0165	0.9585
41.2131	19.9803	161.0243	5.4605	-56.9911	3.1463	134.4525	-57.6553	638.3658	-34.3191	265.7569	62.2585	702.9681	-0.0592	0.0182	-0.0073	-0.0462	0.0165	0.9585
41.225	11.0717	119.4841	2.7012	-42.1599	2.1156	100.1038	-59.4493	672.3754	-36.7015	279.8459	65.1573	737.2147	-0.0592	0.0182	-0.0073	-0.0462	0.0165	0.9585
41.2369	3.743	86.2443	0.75453	-30.3065	1.0092	72.597	-60.4598	705.8269	-39.079	293.6852	67.7177	770.294	-0.0592	0.0182	-0.0073	-0.0462	0.0165	0.9585
41.2487	-1.7678	60.336	-0.4903	-21.0909	0.00097023	51.1126	-60.8401	736.4752	-41.5109	306.32	70.0795	799.8776	-0.0592	0.0182	-0.0073	-0.0462	0.0165	0.9585
41.2606	-5.4317	40.5206	-1.1836	-14.0744	-0.78119	34.6381	-60.6849	762.4718	-44.0161	316.9698	72.2961	824.0925	-0.0592	0.0182	-0.0073	-0.0462	0.0165	0.9585
41.2724	-7.2964	25.6276	-1.4563	-8.8328	-1.2572	22.2189	-60.0362	782.605	-46.3299	325.1371	74.1166	841.7613	-0.0592	0.0182	-0.0073	-0.0462	0.0165	0.9585
41.2843	-7.5018	14.6878	-1.4549	-5.0101	-1.3649	13.0611	-58.9371	796.2259	-48.2954	330.5635	75.3891	852.3345	-0.0592	0.0182	-0.0073	-0.0462	0.0165	0.9585
41.2961	-6.3983	6.9764	-1.2801	-2.3394	-1.1575	6.5556	-57.4657	803.2281	-49.7112	333.2125	75.9402	855.837	-0.0592	0.0182	-0.0073	-0.0462	0.0165	0.9585
41.308	-4.7018	2.0413	-1.063	-0.64736	-0.76987	2.3318	-55.7461	803.9149	-50.5578	333.2133	75.7955	852.7245	-0.0592	0.0182	-0.0073	-0.0462	0.0165	0.9585
41.3199	-2.9167	-0.73478	-0.8339	0.28785	-0.35869	-0.088124	-53.8935	799.019	-50.8685	330.8715	75.0438	843.8733	-0.0592	0.0182	-0.0073	-0.0462	0.0165	0.9585
41.3317	-1.3413	-1.9623	-0.63964	0.68482	0.013202	-1.1781	-51.9895	789.7115	-50.7628	326.672	73.857	830.5717	-0.0592	0.0182	-0.0073	-0.0462	0.0165	0.9585
41.3436	-0.098784	-2.1993	-0.48178	0.73984	0.30324	-1.4092	-50.072	777.4505	-50.38	321.2295	72.404	814.3454	-0.0592	0.0182	-0.0073	-0.0462	0.0165	0.9585
41.3554	0.78856	-1.8772	-0.36765	0.60241	0.50974	-1.1471	-48.1296	763.7892	-49.8385	315.2003	70.814	796.7782	-0.0592	0.0182	-0.0073	-0.0462	0.0165	0.9585
41.3673	1.3553	-1.3044	-0.28882	0.38018	0.64048	-0.67809	-46.1486	750.1174	-49.219	309.1808	69.1687	779.2415	-0.0592	0.0182	-0.0073	-0.0462	0.0165	0.9585
41.3791	1.6602	-0.67759	-0.23866	0.14275	0.7093	-0.16163	-44.0877	737.5967	-48.53	303.6725	67.4655	762.8462	-0.0592	0.0182	-0.0073	-0.0462	0.0165	0.9585
41.391	1.7947	-0.10262	-0.21667	-0.07339	0.74733	0.30742	-41.904	727.1463	-47.7876	299.0685	65.7021	748.4522	-0.0592	0.0182	-0.0073	-0.0462	0.0165	0.9585
41.4029	1.811	0.38606	-0.2073	-0.25507	0.75854	0.70614	-39.5849	719.3894	-46.982	295.6369	63.855	736.6207	-0.0592	0.0182	-0.0073	-0.0462	0.0165	0.9585
41.4147	1.7668	0.77169	-0.21377	-0.3971	0.767	1.0078	-37.1415	714.6987	-46.1351	293.5288	61.9379	727.7015	-0.0592	0.0182	-0.0073	-0.0462	0.0165	0.9585
